<mxfile host="app.diagrams.net" modified="2021-03-20T20:40:37.065Z" agent="5.0 (Windows NT 10.0; Win64; x64) AppleWebKit/537.36 (KHTML, like Gecko) Chrome/89.0.4389.90 Safari/537.36" etag="SkR3PHUQIA-QaKi5H0Kc" version="14.4.8" type="github">
  <diagram id="nff-WBQF7n9IgkW5PVfU" name="Page-1">
    <mxGraphModel dx="981" dy="526" grid="1" gridSize="10" guides="1" tooltips="1" connect="1" arrows="1" fold="1" page="1" pageScale="1" pageWidth="827" pageHeight="1169" math="0" shadow="0">
      <root>
        <mxCell id="0" />
        <mxCell id="1" parent="0" />
        <mxCell id="qcXbbZusSvbcuD9rvLXQ-2" value="" style="html=1;fillColor=#f5f5f5;strokeColor=#666666;fontColor=#333333;align=center;" vertex="1" parent="1">
          <mxGeometry x="168" y="40" width="632" height="820" as="geometry" />
        </mxCell>
        <mxCell id="qcXbbZusSvbcuD9rvLXQ-3" value="&lt;font color=&quot;#b85450&quot;&gt;Marketing&lt;/font&gt;" style="shape=umlActor;verticalLabelPosition=bottom;verticalAlign=top;html=1;strokeColor=#b85450;fillColor=#f8cecc;" vertex="1" parent="1">
          <mxGeometry x="70" y="190" width="30" height="60" as="geometry" />
        </mxCell>
        <mxCell id="qcXbbZusSvbcuD9rvLXQ-4" value="&lt;font style=&quot;font-size: 12px ; font-weight: normal&quot;&gt;Sistema Administrativo&lt;/font&gt;" style="text;strokeColor=none;fillColor=none;html=1;fontSize=24;fontStyle=1;verticalAlign=middle;align=center;" vertex="1" parent="1">
          <mxGeometry x="434" y="30" width="100" height="40" as="geometry" />
        </mxCell>
        <mxCell id="qcXbbZusSvbcuD9rvLXQ-6" value="" style="endArrow=none;html=1;entryX=0;entryY=0.5;entryDx=0;entryDy=0;" edge="1" parent="1" target="qcXbbZusSvbcuD9rvLXQ-45">
          <mxGeometry width="50" height="50" relative="1" as="geometry">
            <mxPoint x="110" y="200" as="sourcePoint" />
            <mxPoint x="220" y="115" as="targetPoint" />
          </mxGeometry>
        </mxCell>
        <mxCell id="qcXbbZusSvbcuD9rvLXQ-24" value="Suporte" style="shape=umlActor;verticalLabelPosition=bottom;verticalAlign=top;html=1;fillColor=#f8cecc;strokeColor=#b85450;fontColor=#B85450;" vertex="1" parent="1">
          <mxGeometry x="60.5" y="490" width="30" height="60" as="geometry" />
        </mxCell>
        <mxCell id="qcXbbZusSvbcuD9rvLXQ-25" value="&lt;font style=&quot;font-size: 10px;&quot;&gt;Efetuar Login&lt;/font&gt;" style="ellipse;whiteSpace=wrap;html=1;fillColor=none;fontSize=10;spacing=2;" vertex="1" parent="1">
          <mxGeometry x="210.5" y="505" width="119" height="45" as="geometry" />
        </mxCell>
        <mxCell id="qcXbbZusSvbcuD9rvLXQ-26" value="Enviar relatório de bugs" style="ellipse;whiteSpace=wrap;html=1;fillColor=none;fontSize=10;spacing=2;" vertex="1" parent="1">
          <mxGeometry x="459" y="600" width="119" height="50" as="geometry" />
        </mxCell>
        <mxCell id="qcXbbZusSvbcuD9rvLXQ-27" value="&lt;font style=&quot;font-size: 10px&quot;&gt;&amp;lt;&amp;lt;include&amp;gt;&amp;gt;&lt;/font&gt;" style="endArrow=block;endSize=9;endFill=0;html=1;exitX=0;exitY=0;exitDx=0;exitDy=0;entryX=1;entryY=1;entryDx=0;entryDy=0;" edge="1" parent="1" source="qcXbbZusSvbcuD9rvLXQ-26" target="qcXbbZusSvbcuD9rvLXQ-25">
          <mxGeometry width="160" relative="1" as="geometry">
            <mxPoint x="690.5" y="450" as="sourcePoint" />
            <mxPoint x="270.5" y="545" as="targetPoint" />
          </mxGeometry>
        </mxCell>
        <mxCell id="qcXbbZusSvbcuD9rvLXQ-29" value="" style="endArrow=none;html=1;entryX=0;entryY=0.5;entryDx=0;entryDy=0;" edge="1" parent="1" target="qcXbbZusSvbcuD9rvLXQ-25">
          <mxGeometry width="50" height="50" relative="1" as="geometry">
            <mxPoint x="110.5" y="528" as="sourcePoint" />
            <mxPoint x="220.5" y="645" as="targetPoint" />
          </mxGeometry>
        </mxCell>
        <mxCell id="qcXbbZusSvbcuD9rvLXQ-30" value="Responder chat de suporte" style="ellipse;whiteSpace=wrap;html=1;fillColor=none;fontSize=10;spacing=2;" vertex="1" parent="1">
          <mxGeometry x="459" y="420" width="119" height="45" as="geometry" />
        </mxCell>
        <mxCell id="qcXbbZusSvbcuD9rvLXQ-32" value="&lt;font style=&quot;font-size: 10px&quot;&gt;&amp;lt;&amp;lt;include&amp;gt;&amp;gt;&lt;/font&gt;" style="endArrow=block;endSize=9;endFill=0;html=1;exitX=0;exitY=1;exitDx=0;exitDy=0;entryX=1;entryY=0;entryDx=0;entryDy=0;" edge="1" parent="1" source="qcXbbZusSvbcuD9rvLXQ-30" target="qcXbbZusSvbcuD9rvLXQ-25">
          <mxGeometry width="160" relative="1" as="geometry">
            <mxPoint x="269.75" y="500" as="sourcePoint" />
            <mxPoint x="270.25" y="435" as="targetPoint" />
          </mxGeometry>
        </mxCell>
        <mxCell id="qcXbbZusSvbcuD9rvLXQ-45" value="Efetuar login" style="ellipse;whiteSpace=wrap;html=1;fillColor=none;fontSize=10;spacing=2;" vertex="1" parent="1">
          <mxGeometry x="220" y="180" width="119" height="45" as="geometry" />
        </mxCell>
        <mxCell id="qcXbbZusSvbcuD9rvLXQ-47" value="Cadastrar promoções e cupons" style="ellipse;whiteSpace=wrap;html=1;fillColor=none;fontSize=10;spacing=2;" vertex="1" parent="1">
          <mxGeometry x="468.5" y="100" width="119" height="50" as="geometry" />
        </mxCell>
        <mxCell id="qcXbbZusSvbcuD9rvLXQ-48" value="&lt;font style=&quot;font-size: 10px&quot;&gt;&amp;lt;&amp;lt;include&amp;gt;&amp;gt;&lt;/font&gt;" style="endArrow=block;endSize=9;endFill=0;html=1;exitX=0;exitY=0.5;exitDx=0;exitDy=0;entryX=1;entryY=0;entryDx=0;entryDy=0;" edge="1" parent="1" source="qcXbbZusSvbcuD9rvLXQ-47" target="qcXbbZusSvbcuD9rvLXQ-45">
          <mxGeometry width="160" relative="1" as="geometry">
            <mxPoint x="454" y="284.71" as="sourcePoint" />
            <mxPoint x="310" y="284.71" as="targetPoint" />
          </mxGeometry>
        </mxCell>
        <mxCell id="qcXbbZusSvbcuD9rvLXQ-49" value="Engajar anúncios de usuários&amp;nbsp;&lt;span style=&quot;color: rgb(33 , 37 , 41) ; text-align: left&quot;&gt;&lt;font face=&quot;Georgia&quot; style=&quot;font-size: 10px&quot;&gt;πStore++&lt;/font&gt;&lt;/span&gt;" style="ellipse;whiteSpace=wrap;html=1;fillColor=none;fontSize=10;spacing=2;" vertex="1" parent="1">
          <mxGeometry x="468.5" y="270" width="119" height="50" as="geometry" />
        </mxCell>
        <mxCell id="qcXbbZusSvbcuD9rvLXQ-50" value="&lt;font style=&quot;font-size: 10px&quot;&gt;&amp;lt;&amp;lt;include&amp;gt;&amp;gt;&lt;/font&gt;" style="endArrow=block;endSize=9;endFill=0;html=1;exitX=0;exitY=0.5;exitDx=0;exitDy=0;" edge="1" parent="1" source="qcXbbZusSvbcuD9rvLXQ-49" target="qcXbbZusSvbcuD9rvLXQ-45">
          <mxGeometry width="160" relative="1" as="geometry">
            <mxPoint x="478.5" y="152.5" as="sourcePoint" />
            <mxPoint x="349" y="152.5" as="targetPoint" />
          </mxGeometry>
        </mxCell>
        <mxCell id="qcXbbZusSvbcuD9rvLXQ-51" value="&lt;span style=&quot;font-size: 13px&quot;&gt;T.I.&lt;/span&gt;" style="shape=umlActor;verticalLabelPosition=bottom;verticalAlign=top;html=1;fillColor=#f8cecc;strokeColor=#b85450;fontColor=#B85450;fontSize=13;" vertex="1" parent="1">
          <mxGeometry x="60.5" y="750" width="30" height="60" as="geometry" />
        </mxCell>
        <mxCell id="qcXbbZusSvbcuD9rvLXQ-56" value="&lt;font style=&quot;font-size: 10px;&quot;&gt;Efetuar Login&lt;/font&gt;" style="ellipse;whiteSpace=wrap;html=1;fillColor=none;fontSize=10;spacing=2;" vertex="1" parent="1">
          <mxGeometry x="190" y="757.5" width="119" height="45" as="geometry" />
        </mxCell>
        <mxCell id="qcXbbZusSvbcuD9rvLXQ-57" value="" style="endArrow=none;html=1;entryX=0;entryY=0.5;entryDx=0;entryDy=0;" edge="1" parent="1">
          <mxGeometry width="50" height="50" relative="1" as="geometry">
            <mxPoint x="110" y="780" as="sourcePoint" />
            <mxPoint x="189.99999999999977" y="779.6600000000001" as="targetPoint" />
          </mxGeometry>
        </mxCell>
        <mxCell id="qcXbbZusSvbcuD9rvLXQ-60" value="Verificar histórico de relatórios" style="ellipse;whiteSpace=wrap;html=1;fillColor=none;fontSize=10;spacing=2;" vertex="1" parent="1">
          <mxGeometry x="479.5" y="757.5" width="119" height="45" as="geometry" />
        </mxCell>
        <mxCell id="qcXbbZusSvbcuD9rvLXQ-61" value="&lt;font style=&quot;font-size: 10px&quot;&gt;&amp;lt;&amp;lt;include&amp;gt;&amp;gt;&lt;/font&gt;" style="endArrow=block;endSize=9;endFill=0;html=1;exitX=0;exitY=0.5;exitDx=0;exitDy=0;entryX=1;entryY=0.5;entryDx=0;entryDy=0;" edge="1" parent="1" source="qcXbbZusSvbcuD9rvLXQ-60" target="qcXbbZusSvbcuD9rvLXQ-56">
          <mxGeometry width="160" relative="1" as="geometry">
            <mxPoint x="249.25" y="750" as="sourcePoint" />
            <mxPoint x="291.4545057889354" y="761.5454696295596" as="targetPoint" />
          </mxGeometry>
        </mxCell>
      </root>
    </mxGraphModel>
  </diagram>
</mxfile>
